# xmcd
#
# Track frame offsets:
#	150
#	59367
#	94227
#	126887
#	183079
#	205518
#	236493
#	278026
#	304742
#
# Disc length: 4327 seconds
#
# Revision: 1
# Processed by: cddbd v1.5.2PL0 Copyright (c) Steve Scherf et al.
# Submitted via: audiograbber 1.83.01
#
DISCID=7410e509
DTITLE=Grateful Dead - 90-03-25 Knickerbocker Arena, Albany NY
DYEAR=1900
DGENRE=
TTITLE0=Eyes Of The World
TTITLE1=Samson and Delilah
TTITLE2=Crazy Fingers
TTITLE3=Truckin > Spoonful
TTITLE4=I Will Take You Home
TTITLE5=GDTRFB
TTITLE6=Black Peter
TTITLE7=Around and Around
TTITLE8=Quinn The Eskimo
EXTD=
EXTT0=
EXTT1=
EXTT2=
EXTT3=
EXTT4=
EXTT5=
EXTT6=
EXTT7=
EXTT8=
PLAYORDER=
